<svg preserveAspectRatio="none" width="100%" height="100%" overflow="visible" style="display: block;" viewBox="0 0 90 90" fill="none" xmlns="http://www.w3.org/2000/svg">
<g id="play-fill 2">
<path id="Vector" d="M84.375 45.0018C84.3773 45.9567 84.1325 46.896 83.6643 47.7283C83.1961 48.5606 82.5205 49.2575 81.7031 49.7514L31.05 80.7381C30.196 81.261 29.2179 81.5465 28.2167 81.565C27.2155 81.5836 26.2275 81.3345 25.3547 80.8435C24.4902 80.3602 23.7701 79.6553 23.2684 78.8014C22.7667 77.9475 22.5014 76.9754 22.5 75.985V14.0186C22.5014 13.0281 22.7667 12.056 23.2684 11.2021C23.7701 10.3482 24.4902 9.64329 25.3547 9.15996C26.2275 8.669 27.2155 8.41992 28.2167 8.43846C29.2179 8.45701 30.196 8.74249 31.05 9.26543L81.7031 40.2521C82.5205 40.746 83.1961 41.443 83.6643 42.2752C84.1325 43.1075 84.3773 44.0468 84.375 45.0018Z" fill="var(--fill-0, white)"/>
</g>
</svg>
