<svg preserveAspectRatio="none" width="100%" height="100%" overflow="visible" style="display: block;" viewBox="0 0 18 24" fill="none" xmlns="http://www.w3.org/2000/svg">
<path id="Vector" d="M16.2899 10.9337C15.9942 10.5336 15.6344 10.1869 15.3001 9.84029C14.4389 9.04026 13.4619 8.46692 12.6391 7.62689C10.7238 5.68016 10.2996 2.46674 11.5208 0C10.2996 0.306676 9.23267 1.00002 8.31995 1.76005C4.99056 4.53347 3.67937 9.42694 5.24766 13.627C5.29908 13.7604 5.3505 13.8938 5.3505 14.0671C5.3505 14.3604 5.15767 14.6271 4.90057 14.7338C4.60492 14.8671 4.2964 14.7871 4.05216 14.5737C3.97921 14.5104 3.91818 14.4335 3.87219 14.3471C2.4196 12.4403 2.18822 9.70695 3.16518 7.52022C1.01843 9.3336 -0.151357 12.4004 0.0157558 15.2938C0.0928835 15.9605 0.170017 16.6272 0.388541 17.2938C0.568512 18.0939 0.915589 18.8938 1.30124 19.6006C2.68955 21.9073 5.0934 23.5607 7.67721 23.894C10.4282 24.254 13.3719 23.734 15.48 21.7606C17.8325 19.5472 18.6552 16.0004 17.4468 12.9603L17.2797 12.6137C17.0098 12.0004 16.2899 10.9337 16.2899 10.9337ZM12.2278 19.3339C11.8679 19.6539 11.2766 20.0006 10.8138 20.134C9.37402 20.6673 7.93431 19.9206 7.08589 19.0406C8.61561 18.6672 9.52825 17.4938 9.79827 16.3071C10.0168 15.2404 9.60541 14.3604 9.43831 13.3337C9.28408 12.347 9.30974 11.507 9.65682 10.587C9.90109 11.0937 10.1581 11.6003 10.4667 12.0004C11.4565 13.3337 13.012 13.9204 13.3462 15.7338C13.3976 15.9205 13.4233 16.1071 13.4233 16.3071C13.4619 17.4005 12.9991 18.6005 12.2278 19.3339Z" fill="var(--fill-0, #EAEAEA)"/>
</svg>
